<svg width="22" height="22" viewBox="0 0 22 22" fill="none" xmlns="http://www.w3.org/2000/svg">
  <path
    fill-rule="evenodd"
    clip-rule="evenodd"
    d="M4.85859 6.875L10.1711 1.5625V5.19344V6.875H4.85859ZM19.0986 2C19.0986 0.9 18.2086 0 17.1086 0H9.10864L3.10864 6V18C3.10864 19.1 4.00833 20 5.10864 20H17.1186C18.2186 20 19.1086 19.1 19.1086 18L19.0986 2Z"
    fill="#2F374A"
  />
  <path
    d="M0.5 11.3044C0.5 10.8242 0.889318 10.4349 1.36957 10.4349H21.3696C21.8498 10.4349 22.2391 10.8242 22.2391 11.3044V17.3914C22.2391 17.8716 21.8498 18.261 21.3696 18.261H1.36957C0.889318 18.261 0.5 17.8716 0.5 17.3914V11.3044Z"
    fill="#F8C62C"
  />
  <path
    d="M2.32568 17.3914V11.2093H4.22786C4.77134 11.2093 5.25679 11.3324 5.68421 11.5787C6.11446 11.8221 6.44989 12.1703 6.69049 12.6232C6.9311 13.0733 7.0514 13.5856 7.0514 14.1602V14.4447C7.0514 15.0193 6.93251 15.5302 6.69474 15.9775C6.4598 16.4247 6.1272 16.7715 5.69695 17.0177C5.26669 17.264 4.78124 17.3885 4.2406 17.3914H2.32568ZM3.59946 12.2411V16.3681H4.21512C4.71331 16.3681 5.09403 16.2053 5.35727 15.8798C5.62052 15.5543 5.75497 15.0887 5.76064 14.4829V14.156C5.76064 13.5276 5.63043 13.052 5.37001 12.7293C5.10959 12.4038 4.72888 12.2411 4.22786 12.2411H3.59946Z"
    fill="white"
  />
  <path
    d="M12.7961 15.6081L13.6283 11.2093H14.8979L13.5264 17.3914H12.2442L11.2379 13.2558L10.2316 17.3914H8.94933L7.57789 11.2093H8.84742L9.68387 15.5996L10.7029 11.2093H11.7814L12.7961 15.6081Z"
    fill="white"
  />
  <path
    d="M20.4813 16.6101C20.252 16.8847 19.9279 17.0984 19.5089 17.2513C19.09 17.4013 18.6258 17.4763 18.1163 17.4763C17.5813 17.4763 17.1114 17.3602 16.7066 17.1281C16.3047 16.8932 15.9933 16.5535 15.7725 16.1091C15.5546 15.6647 15.4428 15.1424 15.4371 14.5424V14.122C15.4371 13.5049 15.5404 12.9714 15.747 12.5213C15.9565 12.0684 16.2566 11.7231 16.6472 11.4853C17.0406 11.2447 17.5006 11.1244 18.0271 11.1244C18.7602 11.1244 19.3334 11.2999 19.7467 11.6509C20.16 11.9991 20.4048 12.5071 20.4813 13.1752H19.2414C19.1848 12.8213 19.0589 12.5623 18.8636 12.3982C18.6711 12.234 18.405 12.1519 18.0653 12.1519C17.6322 12.1519 17.3025 12.3147 17.076 12.6402C16.8496 12.9657 16.7349 13.4497 16.7321 14.0923V14.4872C16.7321 15.1354 16.8552 15.6251 17.1015 15.9563C17.3478 16.2874 17.7087 16.453 18.1842 16.453C18.6626 16.453 19.0037 16.3511 19.2075 16.1473V15.0816H18.0483V14.1432H20.4813V16.6101Z"
    fill="white"
  />
</svg>
