<svg width="16" height="15" viewBox="0 0 16 15" fill="none" xmlns="http://www.w3.org/2000/svg">
  <path
    fill-rule="evenodd"
    clip-rule="evenodd"
    d="M11.8845 0.799402C11.0407 -0.0990098 9.69807 -0.245198 8.69288 0.386367L8.69643 0.390137L7.67756 1.36503L8.94139 2.69051L9.95209 1.72343L13.2039 5.17633L10.4918 7.73182L10.4852 7.7248L9.1338 8.9867C9.13897 8.99007 9.14416 8.99343 9.14936 8.99676L9.14701 8.99898C9.73239 9.37386 10.4407 9.48541 11.1002 9.32838C11.3262 9.27496 11.5466 9.19 11.7544 9.07326L11.7536 9.07238C11.9291 8.97345 12.0955 8.85184 12.2488 8.70742L14.1468 6.91904C14.2735 6.79965 14.3852 6.67029 14.4819 6.53332L14.4835 6.53506C15.1667 5.56918 15.1005 4.22386 14.2596 3.3285L11.8845 0.799402ZM7.50715 7.35395L8.90641 6.04738L6.0116 2.97178C5.40777 3.92606 5.49715 5.20357 6.30392 6.06669L7.50715 7.35395Z"
    fill="#BE3334"
  />
  <path
    fill-rule="evenodd"
    clip-rule="evenodd"
    d="M14.2027 11.905C15.0996 11.0597 15.2458 9.71484 14.6157 8.70791L14.6137 8.70974L13.64 7.68854L12.3151 8.95634L13.2809 9.96935L9.83404 13.2269L7.28232 10.5093L7.28885 10.5031L6.02957 9.14979C6.02633 9.15479 6.0231 9.1598 6.01989 9.16482L6.01881 9.16367C5.82952 9.46034 5.70749 9.78851 5.65342 10.1259C5.56322 10.6834 5.6586 11.2664 5.94285 11.7745L5.94463 11.7728C6.04351 11.9491 6.16514 12.1163 6.30968 12.2703L8.09566 14.1723C8.21447 14.2989 8.34318 14.4105 8.47945 14.5071L8.47794 14.5085C9.44213 15.1925 10.785 15.1259 11.6788 14.2835L14.2027 11.905ZM7.65953 7.52037L8.96333 8.92157L12.0334 6.02182C11.0809 5.41732 9.80615 5.50685 8.94492 6.31468L7.65953 7.52037Z"
    fill="#0D8C9C"
  />
  <path
    fill-rule="evenodd"
    clip-rule="evenodd"
    d="M3.11847 14.2008C3.96219 15.0993 5.30486 15.2454 6.31005 14.6139L6.17306 14.4684L6.31448 14.6167L7.33272 13.6425L6.06204 12.3098L5.05111 13.2771L1.79841 9.82328L4.50979 7.26846L4.516 7.27505L5.86731 6.01326C5.8623 6.00999 5.85728 6.00675 5.85225 6.00352L5.85465 6.00126C5.25723 5.61867 4.53178 5.51035 3.86084 5.6819C3.64901 5.73567 3.44257 5.81733 3.24725 5.92706L3.24803 5.92789C3.07256 6.02682 2.90611 6.14842 2.75285 6.29283L0.854876 8.0812C0.728409 8.20037 0.616864 8.32947 0.520314 8.46615L0.5194 8.46518C-0.163733 9.43106 -0.0975273 10.7764 0.743329 11.6717L3.11847 14.2008ZM7.49408 7.6459L6.09481 8.95247L8.99005 12.0285C9.59389 11.0743 9.5045 9.79674 8.69774 8.93363L7.49408 7.6459Z"
    fill="#9D267A"
  />
  <path
    fill-rule="evenodd"
    clip-rule="evenodd"
    d="M0.798288 3.12189C-0.0985972 3.96713 -0.244784 5.31202 0.385286 6.31895L0.387179 6.31716L1.36093 7.33841L2.68615 6.0704L1.72021 5.05735L5.16784 1.79907L7.71956 4.51668L7.71278 4.52308L8.97198 5.87634C8.97529 5.87124 8.97858 5.86614 8.98185 5.86102L8.98344 5.86272C9.34808 5.29123 9.46311 4.60286 9.32364 3.95681C9.27137 3.71322 9.18294 3.47559 9.05807 3.25243L9.05735 3.25311C8.95852 3.07698 8.83698 2.90992 8.69258 2.75614L6.90659 0.854042C6.78765 0.72737 6.65879 0.615649 6.52236 0.51895L6.52304 0.518307C5.55885 -0.165634 4.21601 -0.0990479 3.32217 0.743327L0.798288 3.12189ZM7.34219 7.50595L6.03831 6.10466L2.96747 9.00513C3.91998 9.60971 5.1948 9.5202 6.05606 8.71234L7.34219 7.50595Z"
    fill="#0D4D8B"
  />
</svg>
