<svg width="22" height="22" viewBox="0 0 22 22" fill="none" xmlns="http://www.w3.org/2000/svg">
  <path
    fill-rule="evenodd"
    clip-rule="evenodd"
    d="M3.9892 6.875L9.3017 1.5625V5.19344V6.875H3.9892ZM18.2293 2C18.2293 0.9 17.3393 0 16.2393 0H8.23926L2.23926 6V18C2.23926 19.1 3.13895 20 4.23926 20H16.2493C17.3493 20 18.2393 19.1 18.2393 18L18.2293 2Z"
    fill="#2F374A"
  />
  <rect
    x="0.5"
    y="10.4348"
    width="19.1304"
    height="7.82609"
    rx="1"
    fill="#205DBD"
  />
  <path
    d="M5.47544 17.3913H4.20166V11.2092H5.47544V17.3913Z"
    fill="white"
  />
  <path
    d="M10.3795 14.865H7.93383V17.3913H6.66005V11.2092H10.6852V12.241H7.93383V13.8374H10.3795V14.865Z"
    fill="white"
  />
  <path
    d="M16.2771 15.332C16.2289 15.9972 15.9827 16.5209 15.5383 16.903C15.0967 17.2851 14.5136 17.4762 13.789 17.4762C12.9964 17.4762 12.3722 17.2101 11.9165 16.678C11.4636 16.143 11.2372 15.4099 11.2372 14.4786V14.1007C11.2372 13.5063 11.3419 12.9826 11.5514 12.5297C11.7608 12.0768 12.0595 11.73 12.4472 11.4894C12.8379 11.246 13.2908 11.1243 13.8059 11.1243C14.5193 11.1243 15.0939 11.3154 15.5298 11.6975C15.9657 12.0796 16.2176 12.616 16.2856 13.3067H15.0118C14.9806 12.9076 14.8688 12.6189 14.6764 12.4405C14.4867 12.2594 14.1966 12.1688 13.8059 12.1688C13.3813 12.1688 13.0629 12.3216 12.8506 12.6274C12.6411 12.9302 12.5336 13.4015 12.5279 14.0412V14.5083C12.5279 15.1763 12.6284 15.6646 12.8294 15.9731C13.0332 16.2817 13.353 16.4359 13.789 16.4359C14.1824 16.4359 14.4754 16.3468 14.6679 16.1685C14.8632 15.9873 14.975 15.7085 15.0033 15.332H16.2771Z"
    fill="white"
  />
</svg>
