<svg width="19" height="17" viewBox="0 0 19 17" fill="none" xmlns="http://www.w3.org/2000/svg">
<path fill-rule="evenodd" clip-rule="evenodd" d="M11.0415 3.54904C11.0415 4.63797 10.1588 5.52073 9.06984 5.52073C7.98091 5.52073 7.09815 4.63797 7.09815 3.54904C7.09815 2.46011 7.98091 1.57735 9.06984 1.57735C10.1588 1.57735 11.0415 2.46011 11.0415 3.54904ZM12.1652 5.28649C11.557 6.36771 10.3987 7.09808 9.06984 7.09808C7.10976 7.09808 5.5208 5.50912 5.5208 3.54904C5.5208 1.58896 7.10976 0 9.06984 0C11.0299 0 12.6189 1.58896 12.6189 3.54904C12.6189 3.6023 12.6177 3.65528 12.6154 3.70796C14.5099 4.80246 15.8515 6.74711 16.1189 9.02044C17.3139 9.59157 18.1394 10.8116 18.1394 12.2244C18.1394 14.1845 16.5504 15.7734 14.5904 15.7734C12.6303 15.7734 11.0413 14.1845 11.0413 12.2244C11.0413 10.3067 12.5624 8.74417 14.4639 8.67756C14.1578 7.2728 13.3169 6.06778 12.1652 5.28649ZM5.52073 12.2244C5.52073 13.3133 4.63797 14.1961 3.54904 14.1961C2.46011 14.1961 1.57735 13.3133 1.57735 12.2244C1.57735 11.1355 2.46011 10.2527 3.54904 10.2527C4.63797 10.2527 5.52073 11.1355 5.52073 12.2244ZM7.09808 12.2244C7.09808 14.1845 5.50912 15.7734 3.54904 15.7734C1.58896 15.7734 0 14.1845 0 12.2244C0 10.8116 0.82555 9.59155 2.02058 9.02043C2.28794 6.74708 3.62961 4.80242 5.5241 3.70792C5.5493 4.27964 5.70977 4.81622 5.97427 5.28643C4.82257 6.06772 3.98166 7.27277 3.67555 8.67756C5.57704 8.74418 7.09808 10.3067 7.09808 12.2244ZM14.5904 14.1961C15.6793 14.1961 16.5621 13.3133 16.5621 12.2244C16.5621 11.1355 15.6793 10.2527 14.5904 10.2527C13.5014 10.2527 12.6187 11.1355 12.6187 12.2244C12.6187 13.3133 13.5014 14.1961 14.5904 14.1961ZM11.9344 14.5786C12.3101 15.0022 12.7855 15.3352 13.3238 15.5409C12.1383 16.4299 10.6655 16.9565 9.06971 16.9565C7.47393 16.9565 6.00113 16.4299 4.81564 15.541C5.35398 15.3352 5.82941 15.0022 6.20508 14.5787C7.04021 15.0866 8.0208 15.3791 9.06971 15.3791C10.1187 15.3791 11.0993 15.0866 11.9344 14.5786Z" fill="#2F374A"/>
</svg>
