<svg width="369" height="165" viewBox="0 0 369 165" fill="none" xmlns="http://www.w3.org/2000/svg">
<path d="M101.494 102.51H120.122V128.815H101.494V164.377H68.8669V128.815H1.46766L0 108.268L68.5282 0H101.494V102.51ZM32.5142 102.51H68.8669V44.4812L66.7219 48.2068L32.5142 102.51Z" fill="#2F374A"/>
<path d="M349.415 102.51H368.043V128.815H349.415V164.377H316.788V128.815H249.388L247.921 108.268L316.449 0H349.415V102.51ZM280.435 102.51H316.788V44.4812L314.643 48.2068L280.435 102.51Z" fill="#2F374A"/>
<path d="M232.142 84.9023C232.142 104.385 228.11 119.287 220.046 129.609C211.982 139.931 200.176 145.092 184.629 145.092C169.275 145.092 157.534 140.028 149.405 129.9C141.276 119.771 137.115 105.256 136.922 86.3538V60.4199C136.922 40.7436 140.986 25.809 149.115 15.6161C157.308 5.42313 169.081 0.32666 184.435 0.32666C199.789 0.32666 211.53 5.39088 219.659 15.5193C227.787 25.5832 231.949 40.0662 232.142 58.9683V84.9023ZM204.176 56.4524C204.176 44.7756 202.563 36.2923 199.338 31.0023C196.176 25.6477 191.209 22.9705 184.435 22.9705C177.855 22.9705 172.984 25.5187 169.823 30.6152C166.727 35.6471 165.081 43.5499 164.888 54.3235V88.5795C164.888 100.063 166.436 108.611 169.533 114.223C172.694 119.771 177.726 122.545 184.629 122.545C191.467 122.545 196.402 119.868 199.434 114.513C202.466 109.159 204.047 100.966 204.176 89.9343V56.4524Z" fill="#2F374A"/>
</svg>
