<svg width="22" height="22" viewBox="0 0 22 22" fill="none" xmlns="http://www.w3.org/2000/svg">
  <path
    fill-rule="evenodd"
    clip-rule="evenodd"
    d="M3.98901 6.87506L9.30151 1.56256V5.1935V6.87506H3.98901ZM18.229 2C18.229 0.9 17.339 0 16.239 0H8.23901L2.23901 6V18C2.23901 19.1 3.1387 20 4.23901 20H16.249C17.349 20 18.239 19.1 18.239 18L18.229 2Z"
    fill="#2F374A"
  />
  <rect
    x="0.5"
    y="10.4348"
    width="19.1304"
    height="7.82609"
    rx="1"
    fill="#FF0000"
  />
  <path
    d="M3.87461 15.213V17.3911H2.60083V11.209H5.01251C5.47674 11.209 5.88434 11.294 6.23534 11.4638C6.58917 11.6336 6.86091 11.8757 7.05056 12.1899C7.24021 12.5012 7.33504 12.8565 7.33504 13.2556C7.33504 13.8613 7.12698 14.3397 6.71088 14.6907C6.29761 15.0389 5.72441 15.213 4.99129 15.213H3.87461ZM3.87461 14.1812H5.01251C5.34936 14.1812 5.60553 14.1019 5.78103 13.9434C5.95936 13.7849 6.04852 13.5585 6.04852 13.2641C6.04852 12.9612 5.95936 12.7163 5.78103 12.5295C5.6027 12.3427 5.35643 12.2465 5.04224 12.2408H3.87461V14.1812Z"
    fill="white"
  />
  <path
    d="M8.21394 17.3911V11.209H10.1161C10.6596 11.209 11.145 11.3322 11.5725 11.5784C12.0027 11.8219 12.3381 12.17 12.5788 12.6229C12.8194 13.073 12.9397 13.5853 12.9397 14.16V14.4444C12.9397 15.0191 12.8208 15.53 12.583 15.9772C12.3481 16.4245 12.0155 16.7712 11.5852 17.0175C11.155 17.2637 10.6695 17.3883 10.1289 17.3911H8.21394ZM9.48772 12.2408V16.3678H10.1034C10.6016 16.3678 10.9823 16.2051 11.2455 15.8796C11.5088 15.554 11.6432 15.0884 11.6489 14.4827V14.1557C11.6489 13.5273 11.5187 13.0518 11.2583 12.7291C10.9979 12.4036 10.6171 12.2408 10.1161 12.2408H9.48772Z"
    fill="white"
  />
  <path
    d="M17.5889 14.8648H15.1433V17.3911H13.8695V11.209H17.8946V12.2408H15.1433V13.8373H17.5889V14.8648Z"
    fill="white"
  />
</svg>
