<svg width="41" height="39" viewBox="0 0 41 39" fill="none" xmlns="http://www.w3.org/2000/svg">
<path d="M19.5 38C29.7173 38 38 29.7173 38 19.5C38 9.28273 29.7173 1 19.5 1C9.28273 1 1 9.28273 1 19.5C1 29.7173 9.28273 38 19.5 38Z" stroke="#C3C3C3"/>
<path d="M32.5 16C36.6421 16 40 12.6421 40 8.5C40 4.35786 36.6421 1 32.5 1C28.3579 1 25 4.35786 25 8.5C25 12.6421 28.3579 16 32.5 16Z" fill="white" stroke="#C3C3C3"/>
<rect x="32" y="2" width="1" height="7" rx="0.5" fill="#C3C3C3"/>
<rect x="33" y="8" width="1" height="6" rx="0.5" transform="rotate(90 33 8)" fill="#C3C3C3"/>
<path fill-rule="evenodd" clip-rule="evenodd" d="M19.5 21.625C16.6631 21.625 11 23.0489 11 25.875V28H28V25.875C28 23.0489 22.3369 21.625 19.5 21.625ZM19.5 19.5C21.8486 19.5 23.75 17.5981 23.75 15.25C23.75 12.9019 21.8486 11 19.5 11C17.1514 11 15.25 12.9019 15.25 15.25C15.25 17.5981 17.1514 19.5 19.5 19.5Z" fill="#C3C3C3"/>
</svg>

