<svg width="156" height="156" viewBox="0 0 156 156" fill="none" xmlns="http://www.w3.org/2000/svg">
<circle cx="78" cy="78" r="78" fill="#F7F7F7"/>
<circle cx="78" cy="78" r="54.75" fill="white" stroke="#D8D8D8" stroke-width="0.5"/>
<path d="M100.304 56L108 63.5882L72.1383 99L49 76.2353L56.6957 68.6471L72.1383 83.8235L100.304 56Z" fill="#F8C62C"/>
<path fill-rule="evenodd" clip-rule="evenodd" d="M114.113 110C110.185 110 107 113.185 107 117.113V121.064H156V117.113C156 113.185 152.815 110 148.887 110H114.113ZM156 125.016H107V148.726C107 152.654 110.185 155.839 114.113 155.839H148.887C152.815 155.839 156 152.654 156 148.726V125.016ZM116.484 116.323C116.484 117.632 115.422 118.694 114.113 118.694C112.803 118.694 111.742 117.632 111.742 116.323C111.742 115.013 112.803 113.952 114.113 113.952C115.422 113.952 116.484 115.013 116.484 116.323ZM122.016 118.694C123.326 118.694 124.387 117.632 124.387 116.323C124.387 115.013 123.326 113.952 122.016 113.952C120.707 113.952 119.645 115.013 119.645 116.323C119.645 117.632 120.707 118.694 122.016 118.694Z" fill="#2F374A"/>
</svg>
