<svg width="23" height="24" viewBox="0 0 23 24" fill="none" xmlns="http://www.w3.org/2000/svg">
<path fill-rule="evenodd" clip-rule="evenodd" d="M4.66368 7.94391L10.7683 1.81853L10.7754 5.99794L10.7787 7.93352L4.66368 7.94391ZM21.0441 2.3047C21.042 1.03864 20.0158 0.00450673 18.7498 0.00665944L9.54204 0.0223155L2.64797 6.93986L2.67146 20.7515C2.67361 22.0175 3.71088 23.0516 4.97731 23.0495L18.8004 23.026C20.0665 23.0238 21.0891 21.9862 21.0869 20.7202L21.0441 2.3047Z" fill="#2F374A"/>
<rect x="0.649658" y="9.05852" width="22.0185" height="13.0192" rx="1" transform="rotate(-0.097421 0.649658 9.05852)" fill="#E544FF"/>
<path fill-rule="evenodd" clip-rule="evenodd" d="M11.3896 10.4819C11.565 10.4819 11.7071 10.3397 11.7071 10.1643C11.7071 9.98898 11.565 9.84682 11.3896 9.84682C11.2142 9.84682 11.0721 9.98898 11.0721 10.1643C11.0721 10.3397 11.2142 10.4819 11.3896 10.4819ZM10.1549 11.1522C10.1549 11.3276 10.0127 11.4697 9.83734 11.4697C9.66198 11.4697 9.51982 11.3276 9.51982 11.1522C9.51982 10.9769 9.66198 10.8347 9.83734 10.8347C10.0127 10.8347 10.1549 10.9769 10.1549 11.1522ZM13.9892 10.8654C13.8421 10.8138 13.681 10.8913 13.6295 11.0384C13.5779 11.1855 13.6554 11.3465 13.8025 11.3981L16.5903 12.4318L12.5992 14.6088L9.68215 13.6251C9.53444 13.5753 9.37433 13.6547 9.32452 13.8024C9.27471 13.9501 9.35407 14.1102 9.50178 14.16L12.3438 15.1183L12.3438 20.6863L9.72395 19.7308C9.5775 19.6774 9.4155 19.7528 9.36209 19.8993C9.30868 20.0457 9.3841 20.2077 9.53054 20.2611L12.5293 21.3548C12.6082 21.3836 12.6957 21.3757 12.7682 21.3334L17.4252 18.6169C17.5119 18.5663 17.5652 18.4735 17.5652 18.3731L17.5652 12.3755C17.5652 12.2556 17.4895 12.1488 17.3763 12.1091L13.9892 10.8654ZM12.9083 15.0832L17.0007 12.851L17.0007 18.211L12.9083 20.5983L12.9083 15.0832ZM8.7788 13.7982C8.95416 13.7982 9.09632 13.656 9.09632 13.4807C9.09632 13.3053 8.95416 13.1632 8.7788 13.1632C8.60343 13.1632 8.46128 13.3053 8.46128 13.4807C8.46128 13.656 8.60343 13.7982 8.7788 13.7982ZM8.24976 13.1985C8.24976 13.3738 8.1076 13.516 7.93224 13.516C7.75688 13.516 7.61472 13.3738 7.61472 13.1985C7.61472 13.0231 7.75688 12.8809 7.93224 12.8809C8.1076 12.8809 8.24976 13.0231 8.24976 13.1985ZM7.08543 13.1631C7.26079 13.1631 7.40295 13.021 7.40295 12.8456C7.40295 12.6703 7.26079 12.5281 7.08543 12.5281C6.91007 12.5281 6.76791 12.6703 6.76791 12.8456C6.76791 13.021 6.91007 13.1631 7.08543 13.1631ZM8.32015 12.2813C8.32015 12.4566 8.17799 12.5988 8.00263 12.5988C7.82727 12.5988 7.68511 12.4566 7.68511 12.2813C7.68511 12.1059 7.82727 11.9637 8.00263 11.9637C8.17799 11.9637 8.32015 12.1059 8.32015 12.2813ZM8.91989 12.0341C9.09525 12.0341 9.23741 11.892 9.23741 11.7166C9.23741 11.5413 9.09525 11.3991 8.91989 11.3991C8.74453 11.3991 8.60237 11.5413 8.60237 11.7166C8.60237 11.892 8.74453 12.0341 8.91989 12.0341ZM12.5867 10.4739C12.5867 10.6493 12.4446 10.7915 12.2692 10.7915C12.0938 10.7915 11.9517 10.6493 11.9517 10.4739C11.9517 10.2986 12.0938 10.1564 12.2692 10.1564C12.4446 10.1564 12.5867 10.2986 12.5867 10.4739ZM10.6135 10.9758C10.7889 10.9758 10.931 10.8337 10.931 10.6583C10.931 10.4829 10.7889 10.3408 10.6135 10.3408C10.4381 10.3408 10.296 10.4829 10.296 10.6583C10.296 10.8337 10.4381 10.9758 10.6135 10.9758ZM7.40295 13.8335C7.40295 14.0089 7.26079 14.1511 7.08543 14.1511C6.91007 14.1511 6.76791 14.0089 6.76791 13.8335C6.76791 13.6582 6.91007 13.516 7.08543 13.516C7.26079 13.516 7.40295 13.6582 7.40295 13.8335ZM7.08543 15.1387C7.26079 15.1387 7.40295 14.9966 7.40295 14.8212C7.40295 14.6458 7.26079 14.5037 7.08543 14.5037C6.91007 14.5037 6.76791 14.6458 6.76791 14.8212C6.76791 14.9966 6.91007 15.1387 7.08543 15.1387ZM7.40295 15.8091C7.40295 15.9845 7.26079 16.1267 7.08543 16.1267C6.91007 16.1267 6.76791 15.9845 6.76791 15.8091C6.76791 15.6338 6.91007 15.4916 7.08543 15.4916C7.26079 15.4916 7.40295 15.6338 7.40295 15.8091ZM7.08543 17.1145C7.26079 17.1145 7.40295 16.9724 7.40295 16.797C7.40295 16.6217 7.26079 16.4795 7.08543 16.4795C6.91007 16.4795 6.76791 16.6217 6.76791 16.797C6.76791 16.9724 6.91007 17.1145 7.08543 17.1145ZM7.40295 17.7849C7.40295 17.9603 7.26079 18.1024 7.08543 18.1024C6.91007 18.1024 6.76791 17.9603 6.76791 17.7849C6.76791 17.6096 6.91007 17.4674 7.08543 17.4674C7.26079 17.4674 7.40295 17.6096 7.40295 17.7849ZM7.08543 19.0901C7.26079 19.0901 7.40295 18.948 7.40295 18.7726C7.40295 18.5972 7.26079 18.4551 7.08543 18.4551C6.91007 18.4551 6.76791 18.5972 6.76791 18.7726C6.76791 18.948 6.91007 19.0901 7.08543 19.0901ZM8.24976 19.2666C8.24976 19.4419 8.1076 19.5841 7.93224 19.5841C7.75688 19.5841 7.61472 19.4419 7.61472 19.2666C7.61472 19.0912 7.75688 18.949 7.93224 18.949C8.1076 18.949 8.24976 19.0912 8.24976 19.2666ZM8.7788 19.8663C8.95416 19.8663 9.09632 19.7241 9.09632 19.5487C9.09632 19.3734 8.95416 19.2312 8.7788 19.2312C8.60343 19.2312 8.46128 19.3734 8.46128 19.5487C8.46128 19.7241 8.60343 19.8663 8.7788 19.8663ZM9.17497 12.6039C9.17497 12.7793 9.03281 12.9214 8.85745 12.9214C8.68209 12.9214 8.53993 12.7792 8.53993 12.6039C8.53993 12.4285 8.68209 12.2864 8.85745 12.2864C9.03281 12.2864 9.17497 12.4285 9.17497 12.6039ZM9.77471 12.3568C9.95007 12.3568 10.0922 12.2147 10.0922 12.0393C10.0922 11.8639 9.95007 11.7218 9.77471 11.7218C9.59935 11.7218 9.45719 11.8639 9.45719 12.0393C9.45719 12.2147 9.59935 12.3568 9.77471 12.3568ZM11.0097 11.4749C11.0097 11.6503 10.8675 11.7924 10.6922 11.7924C10.5168 11.7924 10.3746 11.6503 10.3746 11.4749C10.3746 11.2995 10.5168 11.1574 10.6922 11.1574C10.8675 11.1574 11.0097 11.2995 11.0097 11.4749ZM11.4683 11.2985C11.6436 11.2985 11.7858 11.1563 11.7858 10.981C11.7858 10.8056 11.6436 10.6634 11.4683 10.6634C11.2929 10.6634 11.1507 10.8056 11.1507 10.981C11.1507 11.1563 11.2929 11.2985 11.4683 11.2985ZM9.94489 13.0105C9.94489 13.1858 9.80273 13.328 9.62737 13.328C9.45201 13.328 9.30985 13.1858 9.30985 13.0105C9.30985 12.8351 9.45201 12.693 9.62737 12.693C9.80273 12.693 9.94489 12.8351 9.94489 13.0105ZM10.5447 12.7634C10.7201 12.7634 10.8622 12.6212 10.8622 12.4459C10.8622 12.2705 10.7201 12.1283 10.5447 12.1283C10.3693 12.1283 10.2272 12.2705 10.2272 12.4459C10.2272 12.6212 10.3693 12.7634 10.5447 12.7634ZM11.7797 11.8815C11.7797 12.0568 11.6375 12.199 11.4621 12.199C11.2868 12.199 11.1446 12.0568 11.1446 11.8815C11.1446 11.7061 11.2868 11.5639 11.4621 11.5639C11.6375 11.5639 11.7797 11.7061 11.7797 11.8815ZM12.2382 11.705C12.4136 11.705 12.5558 11.5629 12.5558 11.3875C12.5558 11.2122 12.4136 11.07 12.2382 11.07C12.0629 11.07 11.9207 11.2122 11.9207 11.3875C11.9207 11.5629 12.0629 11.705 12.2382 11.705ZM13.3862 10.8901C13.3862 11.0654 13.2441 11.2076 13.0687 11.2076C12.8933 11.2076 12.7512 11.0654 12.7512 10.8901C12.7512 10.7147 12.8933 10.5726 13.0687 10.5726C13.2441 10.5726 13.3862 10.7147 13.3862 10.8901ZM7.95205 14.5431C8.12741 14.5431 8.26957 14.4009 8.26957 14.2256C8.26957 14.0502 8.12741 13.9081 7.95205 13.9081C7.77669 13.9081 7.63453 14.0502 7.63453 14.2256C7.63453 14.4009 7.77669 14.5431 7.95205 14.5431ZM8.26957 15.2133C8.26957 15.3886 8.12741 15.5308 7.95205 15.5308C7.77669 15.5308 7.63453 15.3886 7.63453 15.2133C7.63453 15.0379 7.77669 14.8957 7.95205 14.8957C8.12741 14.8957 8.26957 15.0379 8.26957 15.2133ZM7.95205 16.5187C8.12741 16.5187 8.26957 16.3765 8.26957 16.2012C8.26957 16.0258 8.12741 15.8836 7.95205 15.8836C7.77669 15.8836 7.63453 16.0258 7.63453 16.2012C7.63453 16.3765 7.77669 16.5187 7.95205 16.5187ZM8.26957 17.1891C8.26957 17.3644 8.12741 17.5066 7.95205 17.5066C7.77669 17.5066 7.63453 17.3644 7.63453 17.1891C7.63453 17.0137 7.77669 16.8715 7.95205 16.8715C8.12741 16.8715 8.26957 17.0137 8.26957 17.1891ZM7.95205 18.4945C8.12741 18.4945 8.26957 18.3523 8.26957 18.1769C8.26957 18.0016 8.12741 17.8594 7.95205 17.8594C7.77669 17.8594 7.63453 18.0016 7.63453 18.1769C7.63453 18.3523 7.77669 18.4945 7.95205 18.4945ZM9.13606 14.6588C9.13606 14.8342 8.9939 14.9763 8.81854 14.9763C8.64318 14.9763 8.50102 14.8342 8.50102 14.6588C8.50102 14.4834 8.64318 14.3413 8.81854 14.3413C8.9939 14.3413 9.13606 14.4834 9.13606 14.6588ZM8.81854 15.964C8.9939 15.964 9.13606 15.8219 9.13606 15.6465C9.13606 15.4711 8.9939 15.329 8.81854 15.329C8.64318 15.329 8.50102 15.4711 8.50102 15.6465C8.50102 15.8219 8.64318 15.964 8.81854 15.964ZM9.13606 16.6344C9.13606 16.8098 8.9939 16.9519 8.81854 16.9519C8.64318 16.9519 8.50102 16.8098 8.50102 16.6344C8.50102 16.459 8.64318 16.3169 8.81854 16.3169C8.9939 16.3169 9.13606 16.459 9.13606 16.6344ZM8.81854 17.9398C8.9939 17.9398 9.13606 17.7977 9.13606 17.6223C9.13606 17.4469 8.9939 17.3048 8.81854 17.3048C8.64318 17.3048 8.50102 17.447 8.50102 17.6223C8.50102 17.7977 8.64318 17.9398 8.81854 17.9398ZM9.13606 18.6102C9.13606 18.7856 8.9939 18.9277 8.81854 18.9277C8.64318 18.9277 8.50102 18.7856 8.50102 18.6102C8.50102 18.4349 8.64318 18.2927 8.81854 18.2927C8.9939 18.2927 9.13606 18.4349 9.13606 18.6102ZM10.7379 13.7299C10.9132 13.7299 11.0554 13.5878 11.0554 13.4124C11.0554 13.237 10.9132 13.0949 10.7379 13.0949C10.5625 13.0949 10.4204 13.237 10.4204 13.4124C10.4204 13.5878 10.5625 13.7299 10.7379 13.7299ZM11.9727 12.8478C11.9727 13.0231 11.8306 13.1653 11.6552 13.1653C11.4798 13.1653 11.3377 13.0231 11.3377 12.8478C11.3377 12.6724 11.4798 12.5303 11.6552 12.5303C11.8306 12.5303 11.9727 12.6724 11.9727 12.8478ZM12.5727 12.6009C12.7481 12.6009 12.8902 12.4587 12.8902 12.2834C12.8902 12.108 12.7481 11.9659 12.5727 11.9659C12.3974 11.9659 12.2552 12.108 12.2552 12.2834C12.2552 12.4587 12.3974 12.6009 12.5727 12.6009ZM13.6663 11.7894C13.6663 11.9648 13.5242 12.107 13.3488 12.107C13.1735 12.107 13.0313 11.9648 13.0313 11.7894C13.0313 11.6141 13.1735 11.4719 13.3488 11.4719C13.5242 11.4719 13.6663 11.6141 13.6663 11.7894ZM9.78102 15.2513C9.95638 15.2513 10.0985 15.1091 10.0985 14.9338C10.0985 14.7584 9.95638 14.6163 9.78102 14.6163C9.60566 14.6163 9.4635 14.7584 9.4635 14.9338C9.4635 15.1091 9.60566 15.2513 9.78102 15.2513ZM10.0985 15.9215C10.0985 16.0968 9.95638 16.239 9.78102 16.239C9.60566 16.239 9.4635 16.0968 9.4635 15.9215C9.4635 15.7461 9.60566 15.604 9.78102 15.604C9.95638 15.604 10.0985 15.7461 10.0985 15.9215ZM9.78102 17.2269C9.95638 17.2269 10.0985 17.0847 10.0985 16.9094C10.0985 16.734 9.95638 16.5919 9.78102 16.5919C9.60566 16.5919 9.4635 16.734 9.4635 16.9094C9.4635 17.0847 9.60566 17.2269 9.78102 17.2269ZM10.0985 17.8973C10.0985 18.0727 9.95638 18.2148 9.78102 18.2148C9.60566 18.2148 9.4635 18.0727 9.4635 17.8973C9.4635 17.7219 9.60566 17.5798 9.78102 17.5798C9.95638 17.5798 10.0985 17.7219 10.0985 17.8973ZM9.78102 19.2027C9.95638 19.2027 10.0985 19.0606 10.0985 18.8852C10.0985 18.7098 9.95638 18.5677 9.78102 18.5677C9.60566 18.5677 9.4635 18.7098 9.4635 18.8852C9.4635 19.0606 9.60566 19.2027 9.78102 19.2027Z" fill="white"/>
</svg>
