<svg width="20" height="21" viewBox="0 0 20 21" fill="none" xmlns="http://www.w3.org/2000/svg">
  <path
    fill-rule="evenodd"
    clip-rule="evenodd"
    d="M4.09613 7.375L9.40863 2.0625V5.69344V7.375H4.09613ZM18.3362 2.5C18.3362 1.4 17.4462 0.5 16.3462 0.5H8.34619L2.34619 6.5V18.5C2.34619 19.6 3.24588 20.5 4.34619 20.5H16.3562C17.4562 20.5 18.3462 19.6 18.3462 18.5L18.3362 2.5Z"
    fill="#2F374A"
  />
  <rect
    x="0.606934"
    y="10.9348"
    width="19.1304"
    height="7.82609"
    rx="1"
    fill="#7E127A"
  />
  <path
    d="M4.919 13.8396L6.08016 11.7045H7.54757L5.74415 14.7754L7.59435 17.8973H6.10994L4.919 15.7281L3.72807 17.8973H2.24365L4.09385 14.7754L2.29044 11.7045H3.75784L4.919 13.8396Z"
    fill="white"
  />
  <path
    d="M10.376 14.4947L11.6648 11.7045H13.0599L11.0268 15.6516V17.8973H9.72953V15.6516L7.69643 11.7045H9.09578L10.376 14.4947Z"
    fill="white"
  />
  <path
    d="M14.9781 16.8723H18.1001V17.8973H13.3831V17.1487L16.4456 12.738H13.3874V11.7045H18.032V12.436L14.9781 16.8723Z"
    fill="white"
  />
</svg>
