<svg width="18" height="18" viewBox="0 0 18 18" fill="none" xmlns="http://www.w3.org/2000/svg">
<path fill-rule="evenodd" clip-rule="evenodd" d="M17.9995 10.7348C17.9995 8.35615 16.0713 6.42788 13.6926 6.42788C13.3786 6.42788 13.0727 6.46241 12.7778 6.52622C12.2305 4.56791 10.4345 3.13086 8.30154 3.13086C5.73429 3.13086 3.65294 5.21208 3.65294 7.77939C3.65294 7.9859 3.66789 8.18888 3.69398 8.38826H3.32629C1.49656 8.38826 -0.000488281 9.88531 -0.000488281 11.715C-0.000488281 13.5448 1.49656 15.0417 3.32629 15.0417H6.94311H10.8866H14.6729C16.5025 15.0417 17.9995 13.5448 17.9995 11.715C17.9995 11.5629 17.9856 11.4143 17.9656 11.2675C17.9871 11.0928 17.9995 10.9153 17.9995 10.7348Z" fill="#2F374A"/>
</svg>
