<svg width="120" height="109" viewBox="0 0 120 109" fill="none" xmlns="http://www.w3.org/2000/svg">
<path opacity="0.21" d="M25.9509 108.222C40.2832 108.222 51.9018 107.645 51.9018 106.934C51.9018 106.222 40.2832 105.646 25.9509 105.646C11.6186 105.646 0 106.222 0 106.934C0 107.645 11.6186 108.222 25.9509 108.222Z" fill="#7A7A7A"/>
<path d="M85.4724 48.0381C82.184 48.0381 79.4437 50.7988 79.4437 54.1117C79.4437 57.4246 82.184 60.1853 85.4724 60.1853C88.7607 60.1853 91.501 57.4246 91.501 54.1117C91.501 50.7988 88.7607 48.0381 85.4724 48.0381ZM88.3953 54.1117C88.3953 55.7681 87.1165 57.0565 85.4724 57.0565C83.8282 57.0565 82.5494 55.7681 82.5494 54.1117C82.5494 52.4553 83.8282 51.1669 85.4724 51.1669C87.1165 51.1669 88.3953 52.6393 88.3953 54.1117Z" fill="#BDBDBD"/>
<path d="M100.27 50.0615C96.7989 50.0615 94.0586 52.8223 94.0586 56.3192C94.0586 59.8161 96.7989 62.5768 100.27 62.5768C103.741 62.5768 106.481 59.8161 106.481 56.3192C106.299 52.8223 103.558 50.0615 100.27 50.0615ZM103.193 56.3192C103.193 57.9756 101.914 59.264 100.27 59.264C98.6257 59.264 97.3469 57.9756 97.3469 56.3192C97.3469 54.6627 98.6257 53.3744 100.27 53.3744C101.914 53.3744 103.193 54.6627 103.193 56.3192Z" fill="#BDBDBD"/>
<path d="M95.1548 19.6934C81.6361 19.6934 70.6749 30.7363 70.6749 44.3559V92.9448C70.6749 96.8099 73.7806 100.123 77.7997 100.123C78.3477 100.123 78.8958 100.123 79.4438 99.9387C79.6265 103.804 82.7322 106.933 86.5686 106.933C90.405 106.933 93.6933 103.804 93.6933 99.7546V96.2577C94.2414 96.4418 94.7894 96.4418 95.3375 96.4418H95.7029C96.2509 96.4418 96.799 96.4418 97.347 96.2577C97.7124 99.9387 100.635 102.699 104.289 102.699C104.837 102.699 105.385 102.699 105.933 102.515C106.664 105.828 109.404 108.221 112.875 108.221C116.712 108.221 120 105.092 120 101.043V44.3559C119.635 30.7363 108.674 19.6934 95.1548 19.6934ZM105.568 87.2393V95.7056C105.568 96.6258 104.837 97.362 103.924 97.362C103.01 97.362 102.28 96.6258 102.28 95.7056V85.951H96.799V89.4479C96.799 90.3682 96.0682 91.1043 95.1548 91.1043H94.7894C93.876 91.1043 93.1453 90.3682 93.1453 89.4479V76.5645H87.6647V99.7546C87.6647 100.675 86.9339 101.411 86.0205 101.411C85.1071 101.411 84.3763 100.675 84.3763 99.7546V88.5277H78.8958V93.1289C78.8958 94.0491 78.165 94.7853 77.2516 94.7853C76.3382 94.7853 75.6074 94.0491 75.6074 93.1289V44.3559C75.6074 33.8651 84.1937 25.2148 94.6067 25.2148C105.02 25.2148 113.606 33.8651 113.606 44.3559V101.043C113.606 101.963 112.875 102.699 111.962 102.699C111.048 102.699 110.318 101.963 110.318 101.043V87.2393H105.568Z" fill="#BDBDBD"/>
<path d="M54.1104 11.7791C57.3631 11.7791 60 9.14228 60 5.88957C60 2.63685 57.3631 0 54.1104 0C50.8577 0 48.2208 2.63685 48.2208 5.88957C48.2208 9.14228 50.8577 11.7791 54.1104 11.7791Z" fill="#BDBDBD"/>
<path d="M43.2516 28.5269C45.4878 28.5269 47.3007 26.714 47.3007 24.4778C47.3007 22.2415 45.4878 20.4287 43.2516 20.4287C41.0153 20.4287 39.2025 22.2415 39.2025 24.4778C39.2025 26.714 41.0153 28.5269 43.2516 28.5269Z" fill="#F8C62C"/>
<path d="M52.454 39.7539C53.9787 39.7539 55.2147 38.5179 55.2147 36.9932C55.2147 35.4684 53.9787 34.2324 52.454 34.2324C50.9293 34.2324 49.6932 35.4684 49.6932 36.9932C49.6932 38.5179 50.9293 39.7539 52.454 39.7539Z" fill="#BDBDBD"/>
<path d="M68.0981 12.1473C69.8261 12.1473 71.2269 10.7465 71.2269 9.01848C71.2269 7.29047 69.8261 5.88965 68.0981 5.88965C66.3701 5.88965 64.9692 7.29047 64.9692 9.01848C64.9692 10.7465 66.3701 12.1473 68.0981 12.1473Z" fill="#F8C62C"/>
<path fill-rule="evenodd" clip-rule="evenodd" d="M55.6849 61.3182C55.3482 55.8906 44.7686 51.5342 31.7668 51.5342C18.765 51.5342 8.18546 55.8906 7.84872 61.3182H7.84045V89.6029H7.84872C8.18546 95.0305 18.765 99.3869 31.7668 99.3869C44.7686 99.3869 55.3482 95.0305 55.6849 89.6029H55.6932V61.3182H55.6849ZM52.1221 61.585C52.1221 61.7488 52.0582 62.2163 51.2917 62.9776C50.8321 63.4341 50.1888 63.9205 49.3485 64.4068C46.4461 65.5428 39.4922 67.9002 31.7668 67.9002C23.8207 67.9002 16.7453 65.4061 14.0246 64.3125C13.2624 63.8578 12.6718 63.4045 12.2419 62.9776C11.4754 62.2163 11.4116 61.7488 11.4116 61.585C11.4116 61.4213 11.4754 60.9537 12.2419 60.1925C13.0221 59.4176 14.3318 58.5561 16.2358 57.7563C20.0293 56.1628 25.5181 55.092 31.7668 55.092C38.0156 55.092 43.5044 56.1628 47.2979 57.7563C49.2018 58.5561 50.5115 59.4176 51.2917 60.1925C52.0582 60.9537 52.1221 61.4213 52.1221 61.585ZM13.3186 67.9857C12.9536 68.3625 12.6028 68.7876 12.2927 69.238C11.9539 69.7303 11.7108 70.1854 11.562 70.5534C11.4478 70.8359 11.4199 70.9907 11.4134 71.0271C11.4127 71.031 11.4122 71.0335 11.4119 71.0348C11.4179 71.2155 11.5066 71.6755 12.2419 72.4058C12.5147 72.6768 12.8523 72.9583 13.2574 73.2441C15.1107 74.0424 22.8962 77.1505 31.7668 77.1505C40.328 77.1505 47.9417 74.2554 50.1441 73.3358C50.6085 73.0186 50.9898 72.7057 51.2917 72.4058C51.9768 71.7254 52.1006 71.2796 52.1192 71.0757C52.1072 71.027 52.0712 70.89 51.9713 70.655C51.8073 70.269 51.5411 69.7844 51.1796 69.2572C50.8672 68.8017 50.5265 68.3758 50.1851 68.0009C45.7964 70.2217 39.1747 71.6359 31.7668 71.6359C24.342 71.6359 17.7072 70.2152 13.3186 67.9857ZM13.2047 77.3556C12.8808 77.7019 12.5704 78.0849 12.2927 78.4884C11.9539 78.9806 11.7108 79.4357 11.562 79.8037C11.4478 80.0863 11.4199 80.241 11.4134 80.2775C11.4127 80.2813 11.4122 80.2839 11.4119 80.2851C11.4179 80.4659 11.5066 80.9259 12.2419 81.6562C12.4056 81.8187 12.5926 81.9851 12.8035 82.1539C12.8156 82.1464 12.8278 82.1389 12.84 82.1315C12.84 82.1315 21.5892 86.223 31.7668 86.223C41.4688 86.223 49.9539 82.5049 50.7258 82.1574C50.9385 81.9874 51.1269 81.8199 51.2917 81.6562C51.9768 80.9757 52.1006 80.53 52.1192 80.3261C52.1072 80.2774 52.0712 80.1403 51.9713 79.9054C51.8073 79.5194 51.5411 79.0347 51.1796 78.5076C50.9006 78.1008 50.599 77.7176 50.2946 77.3733C45.9069 79.6262 39.2366 81.0641 31.7668 81.0641C24.2775 81.0641 17.5919 79.6187 13.2047 77.3556ZM31.7668 90.3145C24.2143 90.3145 17.479 88.8445 13.094 86.5484C12.8101 86.8623 12.5387 87.2036 12.2927 87.5608C11.9539 88.053 11.7108 88.5082 11.562 88.8762C11.4478 89.1587 11.4199 89.3135 11.4134 89.3499C11.4127 89.3538 11.4122 89.3563 11.4119 89.3575C11.4179 89.5383 11.5066 89.9983 12.2419 90.7286C13.0221 91.5035 14.3318 92.365 16.2358 93.1648C20.0293 94.7583 25.5181 95.8291 31.7668 95.8291C38.0156 95.8291 43.5044 94.7583 47.2979 93.1648C49.2018 92.365 50.5115 91.5035 51.2917 90.7286C51.9768 90.0482 52.1006 89.6024 52.1192 89.3985C52.1072 89.3498 52.0712 89.2128 51.9713 88.9778C51.8073 88.5918 51.5411 88.1072 51.1796 87.58C50.9333 87.2209 50.6694 86.8802 50.4015 86.5683C46.0156 88.853 39.2975 90.3145 31.7668 90.3145Z" fill="#BDBDBD"/>
</svg>
