<svg width="70" height="69" viewBox="0 0 70 69" fill="none" xmlns="http://www.w3.org/2000/svg">
<path opacity="0.2" d="M50.8234 68.6336C58.4579 68.6336 64.6469 68.3126 64.6469 67.9168C64.6469 67.5209 58.4579 67.2 50.8234 67.2C43.189 67.2 37 67.5209 37 67.9168C37 68.3126 43.189 68.6336 50.8234 68.6336Z" fill="#7A7A7A"/>
<path d="M15.3292 39.2375C15.3292 41.0694 16.7891 42.5349 18.614 42.5349C20.4389 42.5349 21.8988 41.0694 21.8988 39.2375C21.8988 37.4057 20.4389 35.9402 18.614 35.9402C16.7891 35.9402 15.3292 37.458 15.3292 39.2375ZM18.614 37.7197C19.4482 37.7197 20.1782 38.4001 20.1782 39.2899C20.1782 40.1273 19.5004 40.8601 18.614 40.8601C17.7276 40.8601 17.0498 40.1797 17.0498 39.2899C17.0498 38.4001 17.7798 37.7197 18.614 37.7197Z" fill="#BDBDBD"/>
<path d="M7.19531 40.389C7.19531 42.2732 8.70737 43.7911 10.5844 43.7911C12.4615 43.7911 13.9735 42.2732 13.9735 40.389C13.9735 38.5048 12.4615 36.9869 10.5844 36.9869C8.70737 36.9869 7.19531 38.5048 7.19531 40.389ZM10.5844 38.7665C11.4708 38.7665 12.2008 39.4992 12.2008 40.389C12.2008 41.2788 11.4708 42.0115 10.5844 42.0115C9.69804 42.0115 8.96808 41.2788 8.96808 40.389C8.96808 39.4992 9.69804 38.7665 10.5844 38.7665Z" fill="#BDBDBD"/>
<path d="M0 33.8989V64.7269C0 66.8728 1.72062 68.6 3.85837 68.6C5.68327 68.6 7.24747 67.2915 7.61245 65.512C7.92529 65.5643 8.23813 65.6166 8.55097 65.6166C10.5844 65.6166 12.2008 64.0465 12.4093 62.1099C12.67 62.1622 12.9829 62.2146 13.2957 62.2146H13.5043C13.8171 62.2146 14.0778 62.1622 14.3385 62.1099V63.9941C14.3385 66.14 16.0591 67.8672 18.1969 67.8672C20.2825 67.8672 22.0031 66.1924 22.0553 64.0988C22.316 64.1511 22.6288 64.2035 22.9416 64.2035C25.0794 64.2035 26.8 62.4763 26.8 60.3304V33.8989C26.8 26.519 20.8039 20.5 13.4521 20.5C6.10039 20.5 0 26.519 0 33.8989ZM4.69261 57.2423V64.7269C4.69261 65.1979 4.32763 65.6166 3.85837 65.6166C3.38911 65.6166 3.02413 65.2503 3.02413 64.7792V33.8989C3.02413 28.1416 7.66459 23.4833 13.4 23.4833C19.1354 23.4833 23.7759 28.1416 23.7759 33.8989V60.3304C23.7759 60.8014 23.4109 61.1678 22.9416 61.1678C22.4724 61.1678 22.1074 60.8014 22.1074 60.3304V57.8704H19.1354V63.9941C19.1354 64.4652 18.7704 64.8316 18.3012 64.8316C17.8319 64.8316 17.4669 64.4652 17.4669 63.9941V51.3803H14.4949V58.3415C14.4949 58.8125 14.13 59.1789 13.6607 59.1789H13.4521C12.9829 59.1789 12.6179 58.8125 12.6179 58.3415V56.4572H9.64591V61.7435C9.64591 62.2146 9.28094 62.6333 8.81167 62.6333C8.34241 62.6333 7.97743 62.2669 7.97743 61.7959V57.2423H4.69261V57.2423Z" fill="#BDBDBD"/>
<path d="M32.1231 8.24615C33.8479 8.24615 35.2462 6.84791 35.2462 5.12308C35.2462 3.39825 33.8479 2 32.1231 2C30.3982 2 29 3.39825 29 5.12308C29 6.84791 30.3982 8.24615 32.1231 8.24615Z" fill="#BDBDBD"/>
<path d="M38.2015 14.403C39.4174 14.403 40.403 13.4174 40.403 12.2015C40.403 10.9857 39.4174 10 38.2015 10C36.9856 10 36 10.9857 36 12.2015C36 13.4174 36.9856 14.403 38.2015 14.403Z" fill="#F8C62C"/>
<path d="M32.9335 19.1671C33.7253 19.1671 34.3671 18.5253 34.3671 17.7335C34.3671 16.9418 33.7253 16.3 32.9335 16.3C32.1418 16.3 31.5 16.9418 31.5 17.7335C31.5 18.5253 32.1418 19.1671 32.9335 19.1671Z" fill="#BDBDBD"/>
<path d="M12.7943 10.1884L12.7431 9.67642C12.6407 8.55006 12.9991 7.37251 14.0231 6.09256C14.9446 5.0174 15.4566 4.19823 15.4566 3.27667C15.4566 2.20151 14.791 1.53594 13.5111 1.48474C12.7943 1.48474 11.924 1.74073 11.412 2.09912L10.9 0.819168C11.5656 0.307188 12.7431 0 13.8695 0C16.2246 0 17.2997 1.48474 17.2997 3.02068C17.2997 4.40303 16.5318 5.42699 15.5078 6.60454C14.5862 7.6797 14.2791 8.60126 14.3303 9.62522V10.1372H12.7943V10.1884ZM12.3847 13.0555C12.3847 12.2875 12.8967 11.7755 13.6135 11.7755C14.3303 11.7755 14.8422 12.2875 14.8422 13.0555C14.8422 13.7723 14.3815 14.3354 13.6135 14.3354C12.8455 14.3354 12.3847 13.7723 12.3847 13.0555Z" fill="#BDBDBD"/>
<path d="M70 34H44V36H70V34Z" fill="#BDBDBD"/>
<path fill-rule="evenodd" clip-rule="evenodd" d="M32.8997 37.3H40.0997V32.8001H32.8997V37.3ZM40.0999 31.9001H36.4999L35.6 31H32.8999C32.405 31 32.0045 31.4051 32.0045 31.9001L32 37.3001C32 37.795 32.405 38.2 32.8999 38.2H40.0999C40.5949 38.2 41 37.795 41 37.3001V32.8C41 32.305 40.5949 31.9001 40.0999 31.9001Z" fill="#BDBDBD"/>
<path d="M40.1098 45H36.1968V45.8924H40.1098V45Z" fill="#BDBDBD"/>
<path fill-rule="evenodd" clip-rule="evenodd" d="M51.0999 41.9001H47.4999L46.6 41H43.8999C43.405 41 43.0045 41.4051 43.0045 41.9001L43 47.3001C43 47.795 43.405 48.2 43.8999 48.2H51.0999C51.5949 48.2 52 47.795 52 47.3001V42.8C52 42.305 51.5949 41.9001 51.0999 41.9001V41.9001Z" fill="#BDBDBD"/>
<path d="M70 44H55V46H70V44Z" fill="#BDBDBD"/>
<path fill-rule="evenodd" clip-rule="evenodd" d="M51.0999 53.9001H47.4999L46.6 53H43.8999C43.405 53 43.0045 53.4051 43.0045 53.9001L43 59.3001C43 59.795 43.405 60.2 43.8999 60.2H51.0999C51.5949 60.2 52 59.795 52 59.3001V54.8C52 54.305 51.5949 53.9001 51.0999 53.9001V53.9001Z" fill="#BDBDBD"/>
<path d="M70 56H55V58H70V56Z" fill="#BDBDBD"/>
<path d="M41 57H37V58H41V57Z" fill="#BDBDBD"/>
<path d="M37 58V40H36V58H37Z" fill="#BDBDBD"/>
</svg>
