<svg width="257" height="79" viewBox="0 0 257 79" fill="none" xmlns="http://www.w3.org/2000/svg">
<g filter="drop-shadow(0px 1px 5px #DADADA)">
<path d="M10 20C10 13.9249 14.9249 9 21 9H57.5008C63.576 9 68.5008 13.9249 68.5008 20V56.5008C68.5008 62.576 63.576 67.5008 57.5008 67.5008H21C14.9249 67.5008 10 62.576 10 56.5008V20Z" fill="white"/>
</g>
<path d="M54.7237 24.2491C54.7237 25.3003 53.8716 26.1525 52.8204 26.1525C51.7691 26.1525 50.917 25.3003 50.917 24.2491C50.917 23.1979 51.7691 22.3457 52.8204 22.3457C53.8716 22.3457 54.7237 23.1979 54.7237 24.2491Z" fill="#F9C72C"/>
<path d="M29.3898 27.6585L37.2934 24.5605V55.1851L29.3898 52.0523V27.6585Z" fill="#2F374A"/>
<path d="M49.1115 38.4313L41.2078 41.5293V21.3135L49.1115 24.4463V38.4313Z" fill="#F9C72C"/>
<path d="M97.4768 30.7133V15.8359H102.576C104.258 15.8359 105.539 16.1731 106.418 16.8475C107.296 17.5219 107.736 18.5267 107.736 19.8618C107.736 20.543 107.552 21.1561 107.184 21.7011C106.816 22.246 106.278 22.6684 105.569 22.9681C106.373 23.1861 106.993 23.5982 107.429 24.2045C107.872 24.8039 108.093 25.526 108.093 26.3707C108.093 27.7671 107.644 28.84 106.745 29.5893C105.852 30.3387 104.571 30.7133 102.903 30.7133H97.4768ZM100.062 24.0001V28.6493H102.933C103.744 28.6493 104.377 28.4483 104.834 28.0464C105.29 27.6445 105.518 27.0859 105.518 26.3707C105.518 24.8244 104.728 24.0342 103.148 24.0001H100.062ZM100.062 22.0996H102.596C103.4 22.0996 104.027 21.919 104.476 21.558C104.933 21.1902 105.161 20.6724 105.161 20.0049C105.161 19.2692 104.95 18.7378 104.527 18.4109C104.112 18.0839 103.461 17.9204 102.576 17.9204H100.062V22.0996Z" fill="#2F374A"/>
<path d="M113.407 30.7133H110.832V15.8359H113.407V30.7133Z" fill="#2F374A"/>
<path d="M119.936 15.8359L124.227 27.2392L128.509 15.8359H131.85V30.7133H129.275V25.8087L129.531 19.2487L125.137 30.7133H123.287L118.904 19.259L119.159 25.8087V30.7133H116.584V15.8359H119.936Z" fill="#2F374A"/>
<path d="M134.915 30.7133V15.8359H139.309C140.624 15.8359 141.789 16.1289 142.804 16.7147C143.826 17.3005 144.616 18.1316 145.174 19.2079C145.733 20.2842 146.012 21.5171 146.012 22.9068V23.6527C146.012 25.0628 145.73 26.3026 145.164 27.372C144.606 28.4415 143.805 29.2658 142.763 29.8448C141.727 30.4238 140.539 30.7133 139.197 30.7133H134.915ZM137.501 17.9204V28.6493H139.187C140.542 28.6493 141.581 28.2269 142.303 27.3823C143.032 26.5308 143.403 25.3114 143.417 23.7242V22.8966C143.417 21.2821 143.066 20.0492 142.364 19.1977C141.663 18.3462 140.644 17.9204 139.309 17.9204H137.501Z" fill="#2F374A"/>
<path d="M154.953 30.7133C154.844 30.5021 154.749 30.1581 154.667 29.6813C153.877 30.5056 152.909 30.9177 151.765 30.9177C150.655 30.9177 149.749 30.6009 149.047 29.9674C148.345 29.3339 147.994 28.5505 147.994 27.6173C147.994 26.4388 148.43 25.5362 149.302 24.9095C150.181 24.276 151.435 23.9592 153.063 23.9592H154.585V23.2338C154.585 22.6615 154.425 22.2051 154.105 21.8645C153.785 21.5171 153.298 21.3434 152.644 21.3434C152.078 21.3434 151.615 21.4865 151.254 21.7726C150.893 22.0519 150.712 22.4095 150.712 22.8455H148.23C148.23 22.2392 148.43 21.6738 148.832 21.1493C149.234 20.618 149.779 20.2024 150.467 19.9027C151.162 19.603 151.935 19.4531 152.787 19.4531C154.081 19.4531 155.113 19.7801 155.883 20.434C156.653 21.0812 157.048 21.994 157.068 23.1724V28.1588C157.068 29.1534 157.208 29.947 157.487 30.5396V30.7133H154.953ZM152.225 28.9252C152.715 28.9252 153.175 28.806 153.604 28.5675C154.04 28.3291 154.367 28.009 154.585 27.6071V25.5226H153.247C152.327 25.5226 151.636 25.6827 151.172 26.0028C150.709 26.323 150.477 26.776 150.477 27.3618C150.477 27.8387 150.634 28.2201 150.947 28.5062C151.268 28.7855 151.693 28.9252 152.225 28.9252Z" fill="#2F374A"/>
<path d="M162.78 16.9701V19.6575H164.732V21.4967H162.78V27.6684C162.78 28.0907 162.862 28.3972 163.025 28.588C163.195 28.7719 163.495 28.8639 163.924 28.8639C164.21 28.8639 164.5 28.8298 164.793 28.7617V30.6827C164.227 30.8393 163.683 30.9177 163.158 30.9177C161.251 30.9177 160.297 29.8652 160.297 27.7603V21.4967H158.478V19.6575H160.297V16.9701H162.78Z" fill="#2F374A"/>
<path d="M173.243 30.7133C173.134 30.5021 173.039 30.1581 172.957 29.6813C172.167 30.5056 171.2 30.9177 170.055 30.9177C168.945 30.9177 168.039 30.6009 167.337 29.9674C166.636 29.3339 166.285 28.5505 166.285 27.6173C166.285 26.4388 166.721 25.5362 167.593 24.9095C168.471 24.276 169.725 23.9592 171.353 23.9592H172.875V23.2338C172.875 22.6615 172.715 22.2051 172.395 21.8645C172.075 21.5171 171.588 21.3434 170.934 21.3434C170.368 21.3434 169.905 21.4865 169.544 21.7726C169.183 22.0519 169.003 22.4095 169.003 22.8455H166.52C166.52 22.2392 166.721 21.6738 167.123 21.1493C167.524 20.618 168.069 20.2024 168.757 19.9027C169.452 19.603 170.225 19.4531 171.077 19.4531C172.371 19.4531 173.403 19.7801 174.173 20.434C174.943 21.0812 175.338 21.994 175.358 23.1724V28.1588C175.358 29.1534 175.498 29.947 175.777 30.5396V30.7133H173.243ZM170.515 28.9252C171.005 28.9252 171.465 28.806 171.894 28.5675C172.33 28.3291 172.657 28.009 172.875 27.6071V25.5226H171.537C170.617 25.5226 169.926 25.6827 169.462 26.0028C168.999 26.323 168.768 26.776 168.768 27.3618C168.768 27.8387 168.924 28.2201 169.238 28.5062C169.558 28.7855 169.984 28.9252 170.515 28.9252Z" fill="#2F374A"/>
<path d="M102.555 52.4963V60.3591H97.9571V38.043H106.663C108.339 38.043 109.81 38.3496 111.077 38.9626C112.354 39.5757 113.335 40.4493 114.02 41.5835C114.704 42.7075 115.047 43.9899 115.047 45.4306C115.047 47.6173 114.296 49.3441 112.794 50.6111C111.302 51.8679 109.233 52.4963 106.586 52.4963H102.555ZM102.555 48.7719H106.663C107.879 48.7719 108.803 48.4858 109.437 47.9136C110.081 47.3414 110.403 46.5239 110.403 45.4613C110.403 44.3679 110.081 43.4841 109.437 42.8097C108.793 42.1353 107.904 41.7879 106.77 41.7675H102.555V48.7719Z" fill="#2F374A"/>
<path d="M122.817 56.6653H132.581V60.3591H118.219V38.043H122.817V56.6653Z" fill="#2F374A"/>
<path d="M148.138 55.761H140.076L138.543 60.3591H133.654L141.961 38.043H146.222L154.575 60.3591H149.686L148.138 55.761ZM141.317 52.0365H146.896L144.091 43.6833L141.317 52.0365Z" fill="#2F374A"/>
<path d="M171.618 41.7675H164.783V60.3591H160.185V41.7675H153.441V38.043H171.618V41.7675Z" fill="#2F374A"/>
<path d="M187.681 51.2395H178.853V60.3591H174.255V38.043H188.785V41.7675H178.853V47.5304H187.681V51.2395Z" fill="#2F374A"/>
<path d="M209.783 49.7068C209.783 51.9037 209.394 53.8298 208.618 55.4851C207.841 57.1404 206.727 58.4177 205.276 59.3168C203.836 60.216 202.18 60.6656 200.311 60.6656C198.461 60.6656 196.811 60.2211 195.36 59.3322C193.909 58.4432 192.785 57.1762 191.988 55.5311C191.191 53.8758 190.787 51.9752 190.777 49.8295V48.7259C190.777 46.529 191.171 44.5978 191.957 42.9323C192.754 41.2566 193.873 39.9742 195.314 39.0852C196.765 38.1861 198.42 37.7365 200.28 37.7365C202.14 37.7365 203.79 38.1861 205.231 39.0852C206.681 39.9742 207.8 41.2566 208.587 42.9323C209.384 44.5978 209.783 46.5239 209.783 48.7106V49.7068ZM205.123 48.6953C205.123 46.3553 204.704 44.5774 203.866 43.3615C203.029 42.1455 201.833 41.5376 200.28 41.5376C198.737 41.5376 197.547 42.1404 196.709 43.3461C195.871 44.5416 195.447 46.2991 195.437 48.6186V49.7068C195.437 51.9854 195.856 53.7532 196.693 55.01C197.531 56.2668 198.737 56.8952 200.311 56.8952C201.853 56.8952 203.039 56.2923 203.866 55.0866C204.694 53.8707 205.113 52.103 205.123 49.7835V48.6953Z" fill="#2F374A"/>
<path d="M221.385 52.1898H217.722V60.3591H213.124V38.043H221.416C224.052 38.043 226.085 38.6305 227.516 39.8056C228.946 40.9807 229.662 42.6411 229.662 44.7869C229.662 46.3094 229.33 47.5815 228.665 48.6033C228.012 49.6149 227.015 50.4221 225.677 51.025L230.505 60.1445V60.3591H225.569L221.385 52.1898ZM217.722 48.4654H221.431C222.586 48.4654 223.48 48.1741 224.113 47.5917C224.747 46.9991 225.064 46.1867 225.064 45.1547C225.064 44.1023 224.762 43.2746 224.159 42.6718C223.567 42.0689 222.652 41.7675 221.416 41.7675H217.722V48.4654Z" fill="#2F374A"/>
<path d="M239.18 38.043L244.912 54.2283L250.614 38.043H256.652V60.3591H252.039V54.2589L252.499 43.7293L246.475 60.3591H243.318L237.31 43.7446L237.77 54.2589V60.3591H233.172V38.043H239.18Z" fill="#2F374A"/>
<path d="M186.048 27.716C186.048 29.3714 184.706 30.7133 183.051 30.7133C181.396 30.7133 180.054 29.3714 180.054 27.716C180.054 26.0607 181.396 24.7188 183.051 24.7188C184.706 24.7188 186.048 26.0607 186.048 27.716Z" fill="#F9C72C"/>
<path d="M80.0521 15.8701H81.796V60.1375H80.0521V15.8701Z" fill="#2F374A"/>
<defs>
<filter id="filter0_d_2876:4282" x="0" y="0" width="78.5008" height="78.501" filterUnits="userSpaceOnUse" color-interpolation-filters="sRGB">
<feFlood flood-opacity="0" result="BackgroundImageFix"/>
<feColorMatrix in="SourceAlpha" type="matrix" values="0 0 0 0 0 0 0 0 0 0 0 0 0 0 0 0 0 0 127 0" result="hardAlpha"/>
<feOffset dy="1"/>
<feGaussianBlur stdDeviation="5"/>
<feColorMatrix type="matrix" values="0 0 0 0 0 0 0 0 0 0 0 0 0 0 0 0 0 0 0.1 0"/>
<feBlend mode="normal" in2="BackgroundImageFix" result="effect1_dropShadow_2876:4282"/>
<feBlend mode="normal" in="SourceGraphic" in2="effect1_dropShadow_2876:4282" result="shape"/>
</filter>
</defs>
</svg>
