<svg width="120" height="114" viewBox="0 0 120 114" fill="none" xmlns="http://www.w3.org/2000/svg">
  <path d="M36.3378 50.5557C39.7985 50.5557 42.6825 53.4611 42.6825 56.9477C42.6825 60.4343 39.7985 63.3397 36.3378 63.3397C32.8771 63.3397 29.9931 60.4343 29.9931 56.9477C29.9931 53.4611 32.8771 50.5557 36.3378 50.5557ZM33.2616 56.9477C33.2616 58.691 34.6074 60.0469 36.3378 60.0469C38.0682 60.0469 39.414 58.691 39.414 56.9477C39.414 55.2044 38.0682 53.8485 36.3378 53.8485C34.6074 53.8485 33.2616 55.3981 33.2616 56.9477Z" fill="#BDBDBD"/>
  <path d="M20.7643 52.6865C24.4173 52.6865 27.3013 55.592 27.3013 59.2723C27.3013 62.9525 24.4173 65.858 20.7643 65.858C17.1113 65.858 14.2274 62.9525 14.2274 59.2723C14.4196 55.592 17.3036 52.6865 20.7643 52.6865ZM17.6881 59.2723C17.6881 61.0155 19.0339 62.3714 20.7643 62.3714C22.4947 62.3714 23.8405 61.0155 23.8405 59.2723C23.8405 57.529 22.4947 56.1731 20.7643 56.1731C19.0339 56.1731 17.6881 57.529 17.6881 59.2723Z" fill="#BDBDBD"/>
  <path d="M26.1477 20.7256C40.3752 20.7256 51.911 32.3475 51.911 46.6811V97.8174C51.911 101.885 48.6425 105.372 44.4127 105.372C43.836 105.372 43.2592 105.372 42.6824 105.178C42.4901 109.246 39.2216 112.538 35.1841 112.538C31.1466 112.538 27.6858 109.246 27.6858 104.984V101.304C27.1091 101.498 26.5323 101.498 25.9555 101.498H25.5709C24.9942 101.498 24.4174 101.498 23.8406 101.304C23.4561 105.178 20.3798 108.083 16.5346 108.083C15.9578 108.083 15.381 108.083 14.8042 107.89C14.0352 111.376 11.1512 113.894 7.49821 113.894C3.46068 113.894 -6.48499e-05 110.601 -6.48499e-05 106.34V46.6811C0.384464 32.3475 11.9203 20.7256 26.1477 20.7256ZM15.1887 91.8128V100.723C15.1887 101.691 15.9578 102.466 16.9191 102.466C17.8804 102.466 18.6495 101.691 18.6495 100.723V90.4569H24.4174V94.1372C24.4174 95.1056 25.1864 95.8804 26.1477 95.8804H26.5323C27.4936 95.8804 28.2626 95.1056 28.2626 94.1372V80.5783H34.0305V104.984C34.0305 105.953 34.7996 106.728 35.7609 106.728C36.7222 106.728 37.4913 105.953 37.4913 104.984V93.1687H43.2592V98.0111C43.2592 98.9796 44.0282 99.7544 44.9895 99.7544C45.9508 99.7544 46.7199 98.9796 46.7199 98.0111V46.6811C46.7199 35.6403 37.6835 26.5365 26.7245 26.5365C15.7655 26.5365 6.72916 35.6403 6.72916 46.6811V106.34C6.72916 107.309 7.49821 108.083 8.45952 108.083C9.42084 108.083 10.1899 107.309 10.1899 106.34V91.8128H15.1887Z" fill="#BDBDBD"/>
  <path d="M59.6901 12.3967C56.2668 12.3967 53.4918 9.62158 53.4918 6.19834C53.4918 2.77509 56.2668 0 59.6901 0C63.1133 0 65.8884 2.77509 65.8884 6.19834C65.8884 9.62158 63.1133 12.3967 59.6901 12.3967Z" fill="#BDBDBD"/>
  <path d="M71.118 30.0217C68.7646 30.0217 66.8567 28.1139 66.8567 25.7604C66.8567 23.4069 68.7646 21.499 71.118 21.499C73.4715 21.499 75.3794 23.4069 75.3794 25.7604C75.3794 28.1139 73.4715 30.0217 71.118 30.0217Z" fill="#F8C62C"/>
  <path d="M61.4333 41.8383C59.8286 41.8383 58.5278 40.5375 58.5278 38.9328C58.5278 37.3282 59.8286 36.0273 61.4333 36.0273C63.0379 36.0273 64.3387 37.3282 64.3387 38.9328C64.3387 40.5375 63.0379 41.8383 61.4333 41.8383Z" fill="#BDBDBD"/>
  <path d="M44.969 12.784C43.1504 12.784 41.6761 11.3097 41.6761 9.49111C41.6761 7.67251 43.1504 6.19824 44.969 6.19824C46.7876 6.19824 48.2618 7.67251 48.2618 9.49111C48.2618 11.3097 46.7876 12.784 44.969 12.784Z" fill="#F8C62C"/>
  <path opacity="0.21" d="M91.3262 113.896C103.402 113.896 113.192 113.41 113.192 112.81C113.192 112.211 103.402 111.725 91.3262 111.725C79.2499 111.725 69.4602 112.211 69.4602 112.81C69.4602 113.41 79.2499 113.896 91.3262 113.896Z" fill="#7A7A7A"/>
  <path fill-rule="evenodd" clip-rule="evenodd" d="M85.7182 66.4404C77.1247 67.3444 70.718 70.5653 70.4782 74.4311H70.4712V98.2635H70.4782C70.7619 102.837 79.6761 106.507 90.6313 106.507C101.586 106.507 110.501 102.837 110.784 98.2635H110.791V86.4837C108.92 87.0918 106.923 87.4204 104.849 87.4204C102.998 87.4204 101.208 87.1586 99.5138 86.6699C96.9395 87.2808 93.8656 87.7712 90.6313 87.7712C83.157 87.7712 76.597 85.1523 75.0354 84.4797C74.6941 84.2389 74.4097 84.0017 74.1798 83.7734C73.5602 83.158 73.4855 82.7705 73.4805 82.6181L73.4817 82.6117C73.4872 82.581 73.5107 82.4506 73.607 82.2125C73.7323 81.9025 73.9372 81.519 74.2226 81.1042C74.4839 80.7247 74.7795 80.3665 75.087 80.049C78.7848 81.9276 84.3753 83.1246 90.6313 83.1246C91.3252 83.1246 92.0109 83.1099 92.6868 83.0812C91.5613 82.1597 90.5423 81.1129 89.6511 79.9622C83.3596 79.7735 77.8618 77.8303 75.6819 76.954C75.0397 76.5709 74.542 76.189 74.1798 75.8292C73.534 75.1878 73.4802 74.7939 73.4802 74.6559C73.4802 74.5179 73.534 74.124 74.1798 73.4826C74.8372 72.8296 75.9408 72.1038 77.545 71.4299C79.6914 70.5282 82.4819 69.8252 85.6779 69.4606C85.6513 69.047 85.6378 68.6298 85.6378 68.2094C85.6378 67.613 85.665 67.023 85.7182 66.4404ZM74.2226 88.8985C74.4566 88.5586 74.7181 88.2358 74.9911 87.9441C78.6877 89.8509 84.3209 91.0688 90.6313 91.0688C96.9253 91.0688 102.546 89.8572 106.243 87.9589C106.499 88.2491 106.753 88.5719 106.988 88.9147C107.293 89.3588 107.517 89.7672 107.655 90.0924C107.74 90.2904 107.77 90.4059 107.78 90.4469C107.764 90.6187 107.66 90.9943 107.083 91.5676C106.944 91.7056 106.785 91.8467 106.606 91.99C105.956 92.2828 98.8061 95.4156 90.6313 95.4156C82.0557 95.4156 74.6838 91.9681 74.6838 91.9681L74.653 91.987C74.4753 91.8448 74.3177 91.7046 74.1798 91.5676C73.5602 90.9523 73.4855 90.5647 73.4805 90.4124L73.4817 90.406C73.4872 90.3752 73.5107 90.2449 73.607 90.0068C73.7323 89.6967 73.9372 89.3132 74.2226 88.8985ZM74.8978 95.6898C78.5926 97.6244 84.2676 98.863 90.6313 98.863C96.9766 98.863 102.637 97.6316 106.333 95.7066C106.558 95.9693 106.781 96.2564 106.988 96.559C107.293 97.0032 107.517 97.4116 107.655 97.7368C107.74 97.9348 107.77 98.0502 107.78 98.0912C107.764 98.2631 107.66 98.6387 107.083 99.212C106.425 99.8649 105.322 100.591 103.718 101.265C100.521 102.607 95.8964 103.51 90.6313 103.51C85.3662 103.51 80.7413 102.607 77.545 101.265C75.9408 100.591 74.8372 99.8649 74.1798 99.212C73.5602 98.5966 73.4855 98.2091 73.4805 98.0567L73.4817 98.0503C73.4872 98.0196 73.5107 97.8892 73.607 97.6511C73.7323 97.3411 73.9372 96.9576 74.2226 96.5428C74.4298 96.2418 74.6586 95.9543 74.8978 95.6898Z" fill="#BDBDBD"/>
  <path fill-rule="evenodd" clip-rule="evenodd" d="M104.833 83.3752C113.21 83.3752 120 76.5849 120 68.2086C120 59.8323 113.21 53.042 104.833 53.042C96.4571 53.042 89.6667 59.8323 89.6667 68.2086C89.6667 76.5849 96.4571 83.3752 104.833 83.3752ZM103.738 71.7817C104.346 71.5597 104.817 71.2494 105.15 70.8506V67.2678H101.616V68.6306H103.3V70.1784C103.004 70.4744 102.508 70.6224 101.814 70.6224C101.123 70.6224 100.599 70.3819 100.241 69.9009C99.8835 69.4199 99.7047 68.7087 99.7047 67.7673V67.1938C99.7088 66.2606 99.8753 65.5576 100.204 65.0849C100.533 64.6121 101.012 64.3757 101.641 64.3757C102.134 64.3757 102.521 64.4949 102.8 64.7334C103.084 64.9718 103.267 65.348 103.349 65.8618H105.15C105.039 64.8916 104.683 64.1537 104.083 63.648C103.483 63.1383 102.65 62.8834 101.585 62.8834C100.821 62.8834 100.153 63.0581 99.5814 63.4075C99.014 63.7529 98.5783 64.2544 98.274 64.9122C97.9739 65.5658 97.8239 66.3408 97.8239 67.237V67.8475C97.8321 68.719 97.9945 69.4775 98.311 70.1229C98.6317 70.7684 99.0839 71.2617 99.6677 71.6029C100.256 71.94 100.938 72.1086 101.715 72.1086C102.455 72.1086 103.129 71.9996 103.738 71.7817ZM111.234 71.2144C111.69 70.6142 111.918 69.7797 111.918 68.7108V68.6121C111.918 67.5268 111.686 66.6861 111.221 66.09C110.761 65.4898 110.124 65.1897 109.31 65.1897C108.64 65.1897 108.099 65.4302 107.688 65.9112V62.5134H105.906V71.9852H107.509L107.589 71.2761C108.021 71.8311 108.599 72.1086 109.322 72.1086C110.14 72.1086 110.777 71.8105 111.234 71.2144ZM109.815 67.1075C110.029 67.4158 110.136 67.9071 110.136 68.5813C110.136 69.1363 110.093 69.5494 110.007 69.8208C109.826 70.3881 109.447 70.6718 108.872 70.6718C108.3 70.6718 107.906 70.4374 107.688 69.9688V67.3356C107.902 66.8711 108.292 66.6388 108.86 66.6388C109.283 66.6388 109.602 66.795 109.815 67.1075Z" fill="#BDBDBD"/>
</svg>
