<svg width="109" height="115" viewBox="0 0 109 115" fill="none" xmlns="http://www.w3.org/2000/svg">
<path opacity="0.2" d="M85.4279 114.684C98.4464 114.684 109 114.16 109 113.514C109 112.867 98.4464 112.344 85.4279 112.344C72.4094 112.344 61.8558 112.867 61.8558 113.514C61.8558 114.16 72.4094 114.684 85.4279 114.684Z" fill="#7A7A7A"/>
<path d="M25.7455 65.5338C25.7455 68.543 28.2532 71.0506 31.2624 71.0506C34.2716 71.0506 36.7792 68.543 36.7792 65.5338C36.7792 62.5246 34.2716 60.0169 31.2624 60.0169C28.2532 60.0169 25.7455 62.5246 25.7455 65.5338ZM31.2624 63.0261C32.767 63.0261 33.9372 64.1964 33.9372 65.701C33.9372 67.2056 32.767 68.3758 31.2624 68.3758C29.7578 68.3758 28.5875 67.2056 28.5875 65.701C28.5875 64.1964 29.7578 63.0261 31.2624 63.0261Z" fill="#BDBDBD"/>
<path d="M12.2041 67.5399C12.2041 70.7163 14.7118 73.2239 17.8882 73.2239C21.0645 73.2239 23.5722 70.7163 23.5722 67.5399C23.5722 64.3635 21.0645 61.8558 17.8882 61.8558C14.7118 61.8558 12.2041 64.3635 12.2041 67.5399ZM17.721 64.6979C19.2256 64.6979 20.3958 65.8681 20.3958 67.3727C20.3958 68.8773 19.2256 70.0476 17.721 70.0476C16.2164 70.0476 15.0461 68.8773 15.0461 67.3727C15.0461 65.8681 16.2164 64.6979 17.721 64.6979Z" fill="#BDBDBD"/>
<path d="M0 56.6733V108.164C0 111.675 2.84202 114.684 6.51994 114.684C9.69632 114.684 12.204 112.511 12.8727 109.502C13.3742 109.669 13.8758 109.669 14.3773 109.669C17.7209 109.669 20.5629 106.994 20.7301 103.818C21.2316 103.985 21.7331 103.985 22.2347 103.985H22.569C23.0706 103.985 23.5721 103.985 24.0736 103.818V106.994C24.0736 110.505 26.9156 113.514 30.5936 113.514C34.1043 113.514 36.9463 110.672 37.1135 107.161C37.4479 107.328 37.7822 107.328 38.2837 107.328C41.7945 107.328 44.8037 104.486 44.8037 100.808V56.6733C44.8037 44.3022 34.773 34.2715 22.4018 34.2715C10.0307 34.2715 0 44.3022 0 56.6733ZM7.85736 95.6258V108.164C7.85736 109 7.18865 109.669 6.35276 109.669C5.51687 109.669 5.01534 109 5.01534 108.164V56.6733C5.01534 47.1442 12.8727 39.2868 22.4018 39.2868C31.931 39.2868 39.7883 47.1442 39.7883 56.6733V100.808C39.7883 101.644 39.1196 102.313 38.2837 102.313C37.4479 102.313 36.7791 101.644 36.7791 100.808V96.6288H31.7638V106.827C31.7638 107.663 31.0951 108.331 30.2592 108.331C29.4233 108.331 28.7546 107.663 28.7546 106.827V85.7623H23.7393V97.4647C23.7393 98.3006 23.0706 98.9693 22.2347 98.9693H21.9003C21.0644 98.9693 20.3957 98.3006 20.3957 97.4647V94.2884H15.3804V103.149C15.3804 103.985 14.7117 104.653 13.8758 104.653C13.0399 104.653 12.3712 103.985 12.3712 103.149V95.6258H7.85736Z" fill="#BDBDBD"/>
<path d="M53.3297 33.6028C56.2842 33.6028 58.6794 31.2076 58.6794 28.2531C58.6794 25.2985 56.2842 22.9034 53.3297 22.9034C50.3751 22.9034 47.98 25.2985 47.98 28.2531C47.98 31.2076 50.3751 33.6028 53.3297 33.6028Z" fill="#BDBDBD"/>
<path d="M69.0445 41.6273C71.0757 41.6273 72.7224 39.9807 72.7224 37.9494C72.7224 35.9181 71.0757 34.2715 69.0445 34.2715C67.0132 34.2715 65.3666 35.9181 65.3666 37.9494C65.3666 39.9807 67.0132 41.6273 69.0445 41.6273Z" fill="#F9CD32"/>
<path d="M54.6671 51.8252C56.052 51.8252 57.1748 50.7024 57.1748 49.3175C57.1748 47.9325 56.052 46.8098 54.6671 46.8098C53.2821 46.8098 52.1594 47.9325 52.1594 49.3175C52.1594 50.7024 53.2821 51.8252 54.6671 51.8252Z" fill="#BDBDBD"/>
<rect x="83.3724" y="65" width="20.84" height="30.3681" fill="#BDBDBD"/>
<rect x="74.1862" y="68.1966" width="6.58105" height="23.9748" fill="#BDBDBD"/>
<rect x="65" y="71.3933" width="6.58105" height="17.5815" fill="#BDBDBD"/>
<path d="M21.2316 17.0521V16.2163C21.0644 14.3773 21.7331 12.204 23.4049 10.1979C24.9095 8.3589 25.9126 7.02147 25.9126 5.34969C25.9126 3.51074 24.7424 2.34049 22.569 2.34049C21.2316 2.34049 19.8942 2.84203 19.0583 3.51074L18.2224 1.33742C19.3927 0.501534 21.3988 0 23.2378 0C27.25 0 29.089 2.50767 29.089 5.18252C29.089 7.52301 27.7516 9.36196 26.0798 11.3681C24.5752 13.2071 23.9065 14.7117 24.0736 16.5506V17.3865H21.2316V17.0521ZM20.3957 22.0675C20.3957 20.7301 21.2316 19.8942 22.569 19.8942C23.7393 19.8942 24.5752 20.7301 24.5752 22.0675C24.5752 23.2377 23.7393 24.2408 22.4019 24.2408C21.2316 24.2408 20.3957 23.2377 20.3957 22.0675Z" fill="#BDBDBD"/>
</svg>
