<svg width="22" height="22" viewBox="-0.5 -0.5 25 25" fill="none" xmlns="http://www.w3.org/2000/svg">
  <path
    fill-rule="evenodd"
    clip-rule="evenodd"
    d="M4.51246 7.90627L10.6218 1.79689V5.97247V7.90627H4.51246ZM20.8885 2.3C20.8885 1.035 19.865 0 18.6 0H9.4L2.5 6.9V20.7C2.5 21.965 3.53464 23 4.8 23H18.6115C19.8765 23 20.9 21.965 20.9 20.7L20.8885 2.3Z"
    fill="#01247C"
  />
  <rect
    x="0.5"
    y="11.9995"
    width="22"
    height="9"
    rx="1"
    fill="#44BCFF"
  />
  <path
    d="M3.01855 19.9995V12.8901H5.20605C5.83105 12.8901 6.38932 13.0317 6.88086 13.3149C7.37565 13.5949 7.76139 13.9953 8.03809 14.5161C8.31478 15.0337 8.45313 15.6229 8.45313 16.2837V16.6108C8.45313 17.2716 8.31641 17.8592 8.04297 18.3735C7.77279 18.8879 7.3903 19.2866 6.89551 19.5698C6.40072 19.853 5.84245 19.9963 5.2207 19.9995H3.01855ZM4.4834 14.0767V18.8228H5.19141C5.76432 18.8228 6.20215 18.6356 6.50488 18.2612C6.80762 17.8869 6.96224 17.3514 6.96875 16.6548V16.2788C6.96875 15.5562 6.81901 15.0093 6.51953 14.6382C6.22005 14.2638 5.78223 14.0767 5.20605 14.0767H4.4834Z"
    fill="white"
  />
  <path
    d="M11.959 15.3413L13.292 12.8901H14.9766L12.9063 16.4155L15.0303 19.9995H13.3262L11.959 17.5093L10.5918 19.9995H8.8877L11.0117 16.4155L8.94141 12.8901H10.626L11.959 15.3413Z"
    fill="white"
  />
  <path
    d="M20.0498 17.0942H17.2373V19.9995H15.7725V12.8901H20.4014V14.0767H17.2373V15.9126H20.0498V17.0942Z"
    fill="white"
  />
</svg>
