<svg width="76" height="157" viewBox="0 0 76 157" fill="none" xmlns="http://www.w3.org/2000/svg">
<path fill-rule="evenodd" clip-rule="evenodd" d="M28.0612 77.7518C28.0612 73.7829 31.3296 70.4756 35.2517 70.4756C39.1738 70.4756 42.4423 73.7829 42.4423 77.7518C42.4423 81.7206 39.1738 85.0279 35.2517 85.0279C31.3296 85.0279 28.0612 81.7206 28.0612 77.7518ZM31.767 77.7519C31.767 79.7363 33.2923 81.2798 35.2534 81.2798C37.2144 81.2798 38.7397 79.7363 38.7397 77.7519C38.7397 75.7675 37.2144 74.2241 35.2534 74.2241C33.2923 74.2241 31.767 75.7675 31.767 77.7519Z" fill="#C4C5CC"/>
<path fill-rule="evenodd" clip-rule="evenodd" d="M45.4958 80.3977C45.4958 76.2084 48.7642 72.9011 52.9042 72.9011C56.8263 72.9011 60.3126 76.2084 60.3126 80.3977C60.3126 84.587 57.0442 87.8944 52.9042 87.8944C48.7642 87.8944 45.4958 84.587 45.4958 80.3977ZM49.4182 80.3977C49.4182 82.3821 50.9435 83.9256 52.9045 83.9256C54.8656 83.9256 56.3908 82.3821 56.3908 80.3977C56.3908 78.4133 54.8656 76.8699 52.9045 76.8699C50.9435 76.8699 49.4182 78.4133 49.4182 80.3977Z" fill="#C4C5CC"/>
<path fill-rule="evenodd" clip-rule="evenodd" d="M17.6041 66.0659C17.6041 49.7496 30.6778 36.5202 46.802 36.5202C62.9262 36.5202 75.9999 49.7496 75.9999 66.0659V133.977C75.9999 138.828 72.0778 142.576 67.502 142.576C63.362 142.576 60.0936 139.709 59.222 135.741C58.5683 135.961 57.9146 135.961 57.261 135.961C52.9031 135.961 49.4168 132.654 48.981 128.244C48.3273 128.465 47.6736 128.465 47.0199 128.465C46.3662 128.465 45.7125 128.465 45.0589 128.244V132.433C45.0589 137.284 41.1368 141.032 36.561 141.032C31.9852 141.032 28.281 137.284 28.0631 132.654C27.4094 132.874 26.7557 132.874 26.102 132.874C21.3083 132.874 17.6041 128.905 17.6041 124.275V66.0659ZM68.9541 137.694C70.0847 137.694 70.9892 136.802 70.9892 135.687H70.0847V66.9919C70.0847 54.2789 59.4572 43.7962 46.5685 43.7962C33.6798 43.7962 23.0523 54.2789 23.0523 66.9919V126.096C23.0523 127.211 23.9568 128.103 25.0874 128.103C26.218 128.103 27.1224 127.211 27.1224 126.096V120.52H33.9059V134.125C33.9059 135.241 34.8104 136.133 35.941 136.133C37.0716 136.133 37.976 135.241 37.976 134.125V106.023H44.7596V121.635C44.7596 122.751 45.664 123.643 46.7946 123.643H47.2468C48.3774 123.643 49.2819 122.751 49.2819 121.635V117.398H56.0654V129.219C56.0654 130.334 56.9699 131.226 58.1005 131.226C59.2311 131.226 60.1355 130.334 60.1355 129.219V118.959H66.919V135.687C66.919 136.802 67.8235 137.694 68.9541 137.694Z" fill="#C4C5CC"/>
<path d="M67.9337 137.427C69.3721 137.901 70.0956 136.517 70.0956 135.705L71.117 134.671L72.6746 135.489L72.581 139.064L67.3804 139.529L67.9337 137.427Z" fill="#C4C5CC"/>
<path d="M27.6718 24.6949C25.0243 24.6949 22.8781 22.5231 22.8781 19.8441C22.8781 17.1651 25.0243 14.9933 27.6718 14.9933C30.3192 14.9933 32.4655 17.1651 32.4655 19.8441C32.4655 22.5231 30.3192 24.6949 27.6718 24.6949Z" fill="#F9CD32"/>
<path d="M6.97262 0C10.8947 0 13.9453 3.08686 13.9453 7.05568C13.9453 11.0245 10.8947 14.1114 6.97262 14.1114C3.05052 14.1114 -7.62939e-06 11.0245 -7.62939e-06 7.05568C-7.62939e-06 3.30735 3.26841 0 6.97262 0Z" fill="#C4C5CC"/>
<path d="M8.06627 31.7507C9.80943 31.3097 11.5526 32.4121 11.9884 33.9556C12.4242 35.7195 11.3347 37.4834 9.80943 37.9244C8.06627 38.3654 6.32311 37.2629 5.88732 35.7195C5.45153 33.9556 6.32311 32.1916 8.06627 31.7507Z" fill="#C4C5CC"/>
</svg>

